<svg xmlns="http://www.w3.org/2000/svg" width="1240" height="220" viewBox="0 0 1240 220">
  <!-- Palette -->
  <!-- neutral: #E6E9EF | outline: #34393F | seg1: #58A6FF | seg2: #3FB950 | seg3: #FFB86C | grid: #D0D7DE -->

  <!-- Bar geometry -->
  <defs>
    <rect id="barShape" x="70" y="60" width="1100" height="100" rx="18" ry="18"/>
    <clipPath id="clipBar">
      <use href="#barShape"/>
    </clipPath>
  </defs>

  <!-- Base neutral fill -->
  <use href="#barShape" fill="#E6E9EF"/>

  <!-- Colored segments (10% + 15% + 25% = 50%) -->
  <!-- cell width = 1100 / 100 = 11 -->
  <g clip-path="url(#clipBar)">
    <rect x="70"   y="60" width="110" height="100" fill="#58A6FF"/>
    <rect x="180"  y="60" width="165" height="100" fill="#3FB950"/>
    <rect x="345"  y="60" width="275" height="100" fill="#FFB86C"/>

    <!-- 100-cell grid (vertical dividers) -->
    <g stroke="#D0D7DE" stroke-width="1">
      <!-- 99 lines from cell 1..99 -->
      <line x1="81" y1="60" x2="81" y2="160"/>
      <line x1="92" y1="60" x2="92" y2="160"/>
      <line x1="103" y1="60" x2="103" y2="160"/>
      <line x1="114" y1="60" x2="114" y2="160"/>
      <line x1="125" y1="60" x2="125" y2="160"/>
      <line x1="136" y1="60" x2="136" y2="160"/>
      <line x1="147" y1="60" x2="147" y2="160"/>
      <line x1="158" y1="60" x2="158" y2="160"/>
      <line x1="169" y1="60" x2="169" y2="160"/>
      <line x1="180" y1="60" x2="180" y2="160"/>

      <line x1="191" y1="60" x2="191" y2="160"/>
      <line x1="202" y1="60" x2="202" y2="160"/>
      <line x1="213" y1="60" x2="213" y2="160"/>
      <line x1="224" y1="60" x2="224" y2="160"/>
      <line x1="235" y1="60" x2="235" y2="160"/>
      <line x1="246" y1="60" x2="246" y2="160"/>
      <line x1="257" y1="60" x2="257" y2="160"/>
      <line x1="268" y1="60" x2="268" y2="160"/>
      <line x1="279" y1="60" x2="279" y2="160"/>
      <line x1="290" y1="60" x2="290" y2="160"/>

      <line x1="301" y1="60" x2="301" y2="160"/>
      <line x1="312" y1="60" x2="312" y2="160"/>
      <line x1="323" y1="60" x2="323" y2="160"/>
      <line x1="334" y1="60" x2="334" y2="160"/>
      <line x1="345" y1="60" x2="345" y2="160"/>
      <line x1="356" y1="60" x2="356" y2="160"/>
      <line x1="367" y1="60" x2="367" y2="160"/>
      <line x1="378" y1="60" x2="378" y2="160"/>
      <line x1="389" y1="60" x2="389" y2="160"/>
      <line x1="400" y1="60" x2="400" y2="160"/>

      <line x1="411" y1="60" x2="411" y2="160"/>
      <line x1="422" y1="60" x2="422" y2="160"/>
      <line x1="433" y1="60" x2="433" y2="160"/>
      <line x1="444" y1="60" x2="444" y2="160"/>
      <line x1="455" y1="60" x2="455" y2="160"/>
      <line x1="466" y1="60" x2="466" y2="160"/>
      <line x1="477" y1="60" x2="477" y2="160"/>
      <line x1="488" y1="60" x2="488" y2="160"/>
      <line x1="499" y1="60" x2="499" y2="160"/>
      <line x1="510" y1="60" x2="510" y2="160"/>

      <line x1="521" y1="60" x2="521" y2="160"/>
      <line x1="532" y1="60" x2="532" y2="160"/>
      <line x1="543" y1="60" x2="543" y2="160"/>
      <line x1="554" y1="60" x2="554" y2="160"/>
      <line x1="565" y1="60" x2="565" y2="160"/>
      <line x1="576" y1="60" x2="576" y2="160"/>
      <line x1="587" y1="60" x2="587" y2="160"/>
      <line x1="598" y1="60" x2="598" y2="160"/>
      <line x1="609" y1="60" x2="609" y2="160"/>
      <line x1="620" y1="60" x2="620" y2="160"/>

      <line x1="631" y1="60" x2="631" y2="160"/>
      <line x1="642" y1="60" x2="642" y2="160"/>
      <line x1="653" y1="60" x2="653" y2="160"/>
      <line x1="664" y1="60" x2="664" y2="160"/>
      <line x1="675" y1="60" x2="675" y2="160"/>
      <line x1="686" y1="60" x2="686" y2="160"/>
      <line x1="697" y1="60" x2="697" y2="160"/>
      <line x1="708" y1="60" x2="708" y2="160"/>
      <line x1="719" y1="60" x2="719" y2="160"/>
      <line x1="730" y1="60" x2="730" y2="160"/>

      <line x1="741" y1="60" x2="741" y2="160"/>
      <line x1="752" y1="60" x2="752" y2="160"/>
      <line x1="763" y1="60" x2="763" y2="160"/>
      <line x1="774" y1="60" x2="774" y2="160"/>
      <line x1="785" y1="60" x2="785" y2="160"/>
      <line x1="796" y1="60" x2="796" y2="160"/>
      <line x1="807" y1="60" x2="807" y2="160"/>
      <line x1="818" y1="60" x2="818" y2="160"/>
      <line x1="829" y1="60" x2="829" y2="160"/>
      <line x1="840" y1="60" x2="840" y2="160"/>

      <line x1="851" y1="60" x2="851" y2="160"/>
      <line x1="862" y1="60" x2="862" y2="160"/>
      <line x1="873" y1="60" x2="873" y2="160"/>
      <line x1="884" y1="60" x2="884" y2="160"/>
      <line x1="895" y1="60" x2="895" y2="160"/>
      <line x1="906" y1="60" x2="906" y2="160"/>
      <line x1="917" y1="60" x2="917" y2="160"/>
      <line x1="928" y1="60" x2="928" y2="160"/>
      <line x1="939" y1="60" x2="939" y2="160"/>
      <line x1="950" y1="60" x2="950" y2="160"/>

      <line x1="961" y1="60" x2="961" y2="160"/>
      <line x1="972" y1="60" x2="972" y2="160"/>
      <line x1="983" y1="60" x2="983" y2="160"/>
      <line x1="994" y1="60" x2="994" y2="160"/>
      <line x1="1005" y1="60" x2="1005" y2="160"/>
      <line x1="1016" y1="60" x2="1016" y2="160"/>
      <line x1="1027" y1="60" x2="1027" y2="160"/>
      <line x1="1038" y1="60" x2="1038" y2="160"/>
      <line x1="1049" y1="60" x2="1049" y2="160"/>
      <line x1="1060" y1="60" x2="1060" y2="160"/>

      <line x1="1071" y1="60" x2="1071" y2="160"/>
      <line x1="1082" y1="60" x2="1082" y2="160"/>
      <line x1="1093" y1="60" x2="1093" y2="160"/>
      <line x1="1104" y1="60" x2="1104" y2="160"/>
      <line x1="1115" y1="60" x2="1115" y2="160"/>
      <line x1="1126" y1="60" x2="1126" y2="160"/>
      <line x1="1137" y1="60" x2="1137" y2="160"/>
      <line x1="1148" y1="60" x2="1148" y2="160"/>
      <line x1="1159" y1="60" x2="1159" y2="160"/>
      <line x1="1170" y1="60" x2="1170" y2="160"/>
    </g>
  </g>

  <!-- Thick outline -->
  <use href="#barShape" fill="none" stroke="#34393F" stroke-width="8"/>
</svg>
